<?xml version="1.0" standalone="no"?>
<!DOCTYPE svg PUBLIC "-//W3C//DTD SVG 20010904//EN"
 "http://www.w3.org/TR/2001/REC-SVG-20010904/DTD/svg10.dtd">
<svg version="1.0" xmlns="http://www.w3.org/2000/svg"
 width="325.000000pt" height="325.000000pt" viewBox="0 0 325.000000 325.000000"
 preserveAspectRatio="xMidYMid meet">
<metadata>
Created by potrace 1.11, written by Peter Selinger 2001-2013
</metadata>
<g transform="translate(0.000000,325.000000) scale(0.100000,-0.100000)"
fill="#000000" stroke="none">
<path d="M1727 3230 c-97 -52 -338 -249 -488 -399 -166 -167 -284 -309 -399
-480 -218 -325 -327 -602 -398 -1012 -9 -54 -8 -386 2 -444 3 -22 11 -71 17
-110 26 -169 88 -368 171 -545 65 -140 109 -203 153 -224 73 -35 159 -1 188
73 21 52 17 71 -51 203 -32 62 -67 136 -79 163 -42 101 -95 299 -107 400 -4
28 -10 80 -14 117 -9 76 -8 257 2 338 58 453 301 907 701 1305 127 127 178
174 235 217 l36 27 37 -127 c86 -290 238 -611 455 -964 262 -425 337 -631 336
-918 0 -116 -5 -149 -28 -235 -27 -98 -92 -255 -105 -255 -4 0 -81 87 -171
193 -91 105 -177 206 -191 222 -15 17 -111 129 -215 250 -103 121 -195 225
-204 232 -8 7 -30 15 -48 19 -72 14 -139 -19 -162 -82 -12 -30 -23 -1031 -12
-1088 7 -40 64 -94 108 -102 42 -8 100 9 125 35 41 43 43 57 46 356 1 160 2
307 3 328 0 41 -22 65 453 -493 165 -194 204 -229 257 -229 154 0 335 277 409
624 21 97 26 338 9 425 -43 217 -86 346 -178 530 -56 113 -95 180 -260 450
-207 340 -376 762 -419 1049 -7 40 -17 83 -23 95 -24 46 -78 76 -137 76 -9 0
-33 -9 -54 -20z"/>
</g>
</svg>
